<svg xmlns="http://www.w3.org/2000/svg" xmlns:svg="http://www.w3.org/2000/svg" id="svg4403" width="800" height="300" x="0" y="0" version="1.1" viewBox="0 0 26.667 10"><metadata id="metadata4417"/><g id="g4419" transform="matrix(1.3042251,0,0,1.3042251,1.5953083,-3.4774633)"><path style="fill:#cb3837" id="path4405" d="m 0,3.0000002 18,0 0,6 -9,0 L 9,10 5,10 5,9.0000002 l -5,0 0,-6 z m 1,5 2,0 0,-3 1,0 0,3 1,0 0,-4 -4,0 0,4 z m 5,-4 0,5 2,0 0,-1 2,0 0,-4 -4,0 z m 2,1 1,0 0,2 -1,0 0,-2 z m 3,-1 0,4 2,0 0,-3 1,0 0,3 1,0 0,-3 1,0 0,3 1,0 0,-4 -6,0 z"/><polygon style="fill:#fff" id="polygon4407" points="3 2 4 2 4 5 5 5 5 1 1 1 1 5 3 5" transform="translate(0,3.0000002)"/><path style="fill:#fff" id="path4409" d="m 6,4.0000002 0,5 2,0 0,-1 2,0 0,-4 -4,0 z m 3,3 -1,0 0,-2 1,0 0,2 z"/><polygon style="fill:#fff" id="polygon4411" points="17 5 17 1 11 1 11 5 13 5 13 2 14 2 14 5 15 5 15 2 16 2 16 5" transform="translate(0,3.0000002)"/></g></svg>